<svg xmlns="http://www.w3.org/2000/svg" width="980" height="360" viewBox="0 0 980 360" role="img" aria-labelledby="title desc">
  <title id="title">Internal grouped-window milestone comparison</title>
  <desc id="desc">Comparison of pre-7d12617 and 7d12617 FluxSort benchmark times on duplicate-heavy and random datasets.</desc>
  <rect width="980" height="360" fill="#f7f3ea"/>
  <text x="40" y="40" font-family="Georgia, serif" font-size="24" fill="#1f2a1f">Internal Progress To 7d12617</text>
  <text x="40" y="66" font-family="Verdana, sans-serif" font-size="13" fill="#4a564a">Grouped-window pressure compression materially improved duplicate-heavy blocks and left random roughly flat.</text>

  <g font-family="Verdana, sans-serif" font-size="12" fill="#233223">
    <text x="40" y="112">duplicate_heavy 1024</text>
    <rect x="250" y="96" width="291" height="22" fill="#8f9f7b"/>
    <text x="551" y="112">46f9743 387734 ns</text>
    <rect x="250" y="122" width="270" height="22" fill="#b9a46a"/>
    <text x="530" y="138">7d12617 360123 ns</text>

    <text x="40" y="184">duplicate_heavy 4096</text>
    <rect x="250" y="168" width="270" height="22" fill="#8f9f7b"/>
    <text x="530" y="184">46f9743 3610599 ns</text>
    <rect x="250" y="194" width="260" height="22" fill="#b9a46a"/>
    <text x="520" y="210">7d12617 3481692 ns</text>

    <text x="40" y="256">random 1024</text>
    <rect x="250" y="240" width="44" height="22" fill="#8f9f7b"/>
    <text x="304" y="256">46f9743 586323 ns</text>
    <rect x="250" y="266" width="45" height="22" fill="#b9a46a"/>
    <text x="305" y="282">7d12617 604275 ns</text>
  </g>

  <g font-family="Verdana, sans-serif" font-size="12" fill="#233223">
    <rect x="720" y="96" width="18" height="18" fill="#8f9f7b"/>
    <text x="748" y="110">46f9743</text>
    <rect x="720" y="126" width="18" height="18" fill="#b9a46a"/>
    <text x="748" y="140">7d12617</text>
  </g>

  <text x="40" y="332" font-family="Verdana, sans-serif" font-size="12" fill="#5b665b">Comparison uses focused local benchmark runs on the same toolchain. This is an internal progress chart, not a claim of overall competitiveness.</text>
</svg>
