<svg xmlns="http://www.w3.org/2000/svg" width="980" height="420" viewBox="0 0 980 420" role="img" aria-labelledby="title desc">
  <title id="title">Representative stable benchmark comparison</title>
  <desc id="desc">AdicFlux versus std.sort.pdq on four representative dataset and size combinations from the stable 7d12617 benchmark snapshot.</desc>
  <rect width="980" height="420" fill="#f7f3ea"/>
  <text x="40" y="40" font-family="Georgia, serif" font-size="24" fill="#1f2a1f">AdicFlux vs std.sort.pdq</text>
  <text x="40" y="66" font-family="Verdana, sans-serif" font-size="13" fill="#4a564a">Stable milestone 7d12617, local ReleaseFast run, lower is better</text>

  <g font-family="Verdana, sans-serif" font-size="12" fill="#233223">
    <text x="40" y="108">duplicate_heavy 1024</text>
    <rect x="220" y="92" width="270" height="22" fill="#b9a46a"/>
    <text x="500" y="108">AdicFlux 360123 ns</text>
    <rect x="220" y="118" width="1" height="22" fill="#336b87"/>
    <text x="231" y="134">pdq 1253 ns</text>

    <text x="40" y="182">duplicate_heavy 4096</text>
    <rect x="220" y="166" width="270" height="22" fill="#b9a46a"/>
    <text x="500" y="182">AdicFlux 3481692 ns</text>
    <rect x="220" y="192" width="1" height="22" fill="#336b87"/>
    <text x="231" y="208">pdq 3678 ns</text>

    <text x="40" y="256">random 1024</text>
    <rect x="220" y="240" width="47" height="22" fill="#b9a46a"/>
    <text x="277" y="256">AdicFlux 604275 ns</text>
    <rect x="220" y="266" width="1" height="22" fill="#336b87"/>
    <text x="231" y="282">pdq 3608 ns</text>

    <text x="40" y="330">clustered 4096</text>
    <rect x="220" y="314" width="15" height="22" fill="#b9a46a"/>
    <text x="245" y="330">AdicFlux 189747 ns</text>
    <rect x="220" y="340" width="1" height="22" fill="#336b87"/>
    <text x="231" y="356">pdq 14805 ns</text>
  </g>

  <g font-family="Verdana, sans-serif" font-size="12" fill="#233223">
    <rect x="700" y="92" width="18" height="18" fill="#b9a46a"/>
    <text x="728" y="106">AdicFlux</text>
    <rect x="700" y="122" width="18" height="18" fill="#336b87"/>
    <text x="728" y="136">std.sort.pdq</text>
  </g>

  <text x="40" y="392" font-family="Verdana, sans-serif" font-size="12" fill="#5b665b">Scaled separately by absolute nanoseconds across the plotted subset. The chart is illustrative, not a claim of competitiveness.</text>
</svg>
